<?xml version="1.0" encoding="utf-8" standalone="no"?>
<!DOCTYPE svg PUBLIC "-//W3C//DTD SVG 1.1//EN"
  "http://www.w3.org/Graphics/SVG/1.1/DTD/svg11.dtd">
<svg xmlns:xlink="http://www.w3.org/1999/xlink" width="1384.56pt" height="486pt" viewBox="0 0 1384.56 486" xmlns="http://www.w3.org/2000/svg" version="1.1">
 <metadata>
  <rdf:RDF xmlns:dc="http://purl.org/dc/elements/1.1/" xmlns:cc="http://creativecommons.org/ns#" xmlns:rdf="http://www.w3.org/1999/02/22-rdf-syntax-ns#">
   <cc:Work>
    <dc:type rdf:resource="http://purl.org/dc/dcmitype/StillImage"/>
    <dc:date>2023-10-19T02:51:41.321095</dc:date>
    <dc:format>image/svg+xml</dc:format>
    <dc:creator>
     <cc:Agent>
      <dc:title>Matplotlib v3.5.3, https://matplotlib.org/</dc:title>
     </cc:Agent>
    </dc:creator>
   </cc:Work>
  </rdf:RDF>
 </metadata>
 <defs>
  <style type="text/css">*{stroke-linejoin: round; stroke-linecap: butt}</style>
 </defs>
 <g id="figure_1">
  <g id="patch_1">
   <path d="M 0 486 
L 1384.56 486 
L 1384.56 0 
L 0 0 
z
" style="fill: #ffffff"/>
  </g>
  <g id="axes_1">
   <g id="patch_2">
    <path d="M 173.07 432.54 
L 1246.104 432.54 
L 1246.104 58.32 
L 173.07 58.32 
z
" style="fill: #ffffff"/>
   </g>
   <g id="matplotlib.axis_1">
    <g id="xtick_1">
     <g id="line2d_1">
      <path d="M 330.231545 432.54 
L 330.231545 58.32 
" clip-path="url(#p825023d212)" style="fill: none; stroke-dasharray: 2.96,1.28; stroke-dashoffset: 0; stroke: #b0b0b0; stroke-opacity: 0.7; stroke-width: 0.8"/>
     </g>
     <g id="line2d_2">
      <defs>
       <path id="m64c41562e4" d="M 0 0 
L 0 3.5 
" style="stroke: #000000; stroke-width: 0.8"/>
      </defs>
      <g>
       <use xlink:href="#m64c41562e4" x="330.231545" y="432.54" style="stroke: #000000; stroke-width: 0.8"/>
      </g>
     </g>
     <g id="text_1">
      <!-- 2 -->
      <g transform="translate(327.050295 447.138438)scale(0.1 -0.1)">
       <defs>
        <path id="DejaVuSans-32" d="M 1228 531 
L 3431 531 
L 3431 0 
L 469 0 
L 469 531 
Q 828 903 1448 1529 
Q 2069 2156 2228 2338 
Q 2531 2678 2651 2914 
Q 2772 3150 2772 3378 
Q 2772 3750 2511 3984 
Q 2250 4219 1831 4219 
Q 1534 4219 1204 4116 
Q 875 4013 500 3803 
L 500 4441 
Q 881 4594 1212 4672 
Q 1544 4750 1819 4750 
Q 2544 4750 2975 4387 
Q 3406 4025 3406 3419 
Q 3406 3131 3298 2873 
Q 3191 2616 2906 2266 
Q 2828 2175 2409 1742 
Q 1991 1309 1228 531 
z
" transform="scale(0.015625)"/>
       </defs>
       <use xlink:href="#DejaVuSans-32"/>
      </g>
     </g>
    </g>
    <g id="xtick_2">
     <g id="line2d_3">
      <path d="M 547.006091 432.54 
L 547.006091 58.32 
" clip-path="url(#p825023d212)" style="fill: none; stroke-dasharray: 2.96,1.28; stroke-dashoffset: 0; stroke: #b0b0b0; stroke-opacity: 0.7; stroke-width: 0.8"/>
     </g>
     <g id="line2d_4">
      <g>
       <use xlink:href="#m64c41562e4" x="547.006091" y="432.54" style="stroke: #000000; stroke-width: 0.8"/>
      </g>
     </g>
     <g id="text_2">
      <!-- 4 -->
      <g transform="translate(543.824841 447.138438)scale(0.1 -0.1)">
       <defs>
        <path id="DejaVuSans-34" d="M 2419 4116 
L 825 1625 
L 2419 1625 
L 2419 4116 
z
M 2253 4666 
L 3047 4666 
L 3047 1625 
L 3713 1625 
L 3713 1100 
L 3047 1100 
L 3047 0 
L 2419 0 
L 2419 1100 
L 313 1100 
L 313 1709 
L 2253 4666 
z
" transform="scale(0.015625)"/>
       </defs>
       <use xlink:href="#DejaVuSans-34"/>
      </g>
     </g>
    </g>
    <g id="xtick_3">
     <g id="line2d_5">
      <path d="M 763.780636 432.54 
L 763.780636 58.32 
" clip-path="url(#p825023d212)" style="fill: none; stroke-dasharray: 2.96,1.28; stroke-dashoffset: 0; stroke: #b0b0b0; stroke-opacity: 0.7; stroke-width: 0.8"/>
     </g>
     <g id="line2d_6">
      <g>
       <use xlink:href="#m64c41562e4" x="763.780636" y="432.54" style="stroke: #000000; stroke-width: 0.8"/>
      </g>
     </g>
     <g id="text_3">
      <!-- 6 -->
      <g transform="translate(760.599386 447.138438)scale(0.1 -0.1)">
       <defs>
        <path id="DejaVuSans-36" d="M 2113 2584 
Q 1688 2584 1439 2293 
Q 1191 2003 1191 1497 
Q 1191 994 1439 701 
Q 1688 409 2113 409 
Q 2538 409 2786 701 
Q 3034 994 3034 1497 
Q 3034 2003 2786 2293 
Q 2538 2584 2113 2584 
z
M 3366 4563 
L 3366 3988 
Q 3128 4100 2886 4159 
Q 2644 4219 2406 4219 
Q 1781 4219 1451 3797 
Q 1122 3375 1075 2522 
Q 1259 2794 1537 2939 
Q 1816 3084 2150 3084 
Q 2853 3084 3261 2657 
Q 3669 2231 3669 1497 
Q 3669 778 3244 343 
Q 2819 -91 2113 -91 
Q 1303 -91 875 529 
Q 447 1150 447 2328 
Q 447 3434 972 4092 
Q 1497 4750 2381 4750 
Q 2619 4750 2861 4703 
Q 3103 4656 3366 4563 
z
" transform="scale(0.015625)"/>
       </defs>
       <use xlink:href="#DejaVuSans-36"/>
      </g>
     </g>
    </g>
    <g id="xtick_4">
     <g id="line2d_7">
      <path d="M 980.555182 432.54 
L 980.555182 58.32 
" clip-path="url(#p825023d212)" style="fill: none; stroke-dasharray: 2.96,1.28; stroke-dashoffset: 0; stroke: #b0b0b0; stroke-opacity: 0.7; stroke-width: 0.8"/>
     </g>
     <g id="line2d_8">
      <g>
       <use xlink:href="#m64c41562e4" x="980.555182" y="432.54" style="stroke: #000000; stroke-width: 0.8"/>
      </g>
     </g>
     <g id="text_4">
      <!-- 8 -->
      <g transform="translate(977.373932 447.138438)scale(0.1 -0.1)">
       <defs>
        <path id="DejaVuSans-38" d="M 2034 2216 
Q 1584 2216 1326 1975 
Q 1069 1734 1069 1313 
Q 1069 891 1326 650 
Q 1584 409 2034 409 
Q 2484 409 2743 651 
Q 3003 894 3003 1313 
Q 3003 1734 2745 1975 
Q 2488 2216 2034 2216 
z
M 1403 2484 
Q 997 2584 770 2862 
Q 544 3141 544 3541 
Q 544 4100 942 4425 
Q 1341 4750 2034 4750 
Q 2731 4750 3128 4425 
Q 3525 4100 3525 3541 
Q 3525 3141 3298 2862 
Q 3072 2584 2669 2484 
Q 3125 2378 3379 2068 
Q 3634 1759 3634 1313 
Q 3634 634 3220 271 
Q 2806 -91 2034 -91 
Q 1263 -91 848 271 
Q 434 634 434 1313 
Q 434 1759 690 2068 
Q 947 2378 1403 2484 
z
M 1172 3481 
Q 1172 3119 1398 2916 
Q 1625 2713 2034 2713 
Q 2441 2713 2670 2916 
Q 2900 3119 2900 3481 
Q 2900 3844 2670 4047 
Q 2441 4250 2034 4250 
Q 1625 4250 1398 4047 
Q 1172 3844 1172 3481 
z
" transform="scale(0.015625)"/>
       </defs>
       <use xlink:href="#DejaVuSans-38"/>
      </g>
     </g>
    </g>
    <g id="xtick_5">
     <g id="line2d_9">
      <path d="M 1197.329727 432.54 
L 1197.329727 58.32 
" clip-path="url(#p825023d212)" style="fill: none; stroke-dasharray: 2.96,1.28; stroke-dashoffset: 0; stroke: #b0b0b0; stroke-opacity: 0.7; stroke-width: 0.8"/>
     </g>
     <g id="line2d_10">
      <g>
       <use xlink:href="#m64c41562e4" x="1197.329727" y="432.54" style="stroke: #000000; stroke-width: 0.8"/>
      </g>
     </g>
     <g id="text_5">
      <!-- 10 -->
      <g transform="translate(1190.967227 447.138438)scale(0.1 -0.1)">
       <defs>
        <path id="DejaVuSans-31" d="M 794 531 
L 1825 531 
L 1825 4091 
L 703 3866 
L 703 4441 
L 1819 4666 
L 2450 4666 
L 2450 531 
L 3481 531 
L 3481 0 
L 794 0 
L 794 531 
z
" transform="scale(0.015625)"/>
        <path id="DejaVuSans-30" d="M 2034 4250 
Q 1547 4250 1301 3770 
Q 1056 3291 1056 2328 
Q 1056 1369 1301 889 
Q 1547 409 2034 409 
Q 2525 409 2770 889 
Q 3016 1369 3016 2328 
Q 3016 3291 2770 3770 
Q 2525 4250 2034 4250 
z
M 2034 4750 
Q 2819 4750 3233 4129 
Q 3647 3509 3647 2328 
Q 3647 1150 3233 529 
Q 2819 -91 2034 -91 
Q 1250 -91 836 529 
Q 422 1150 422 2328 
Q 422 3509 836 4129 
Q 1250 4750 2034 4750 
z
" transform="scale(0.015625)"/>
       </defs>
       <use xlink:href="#DejaVuSans-31"/>
       <use xlink:href="#DejaVuSans-30" x="63.623047"/>
      </g>
     </g>
    </g>
    <g id="text_6">
     <!-- Data Point -->
     <g transform="translate(678.461063 462.33625)scale(0.12 -0.12)">
      <defs>
       <path id="DejaVuSans-44" d="M 1259 4147 
L 1259 519 
L 2022 519 
Q 2988 519 3436 956 
Q 3884 1394 3884 2338 
Q 3884 3275 3436 3711 
Q 2988 4147 2022 4147 
L 1259 4147 
z
M 628 4666 
L 1925 4666 
Q 3281 4666 3915 4102 
Q 4550 3538 4550 2338 
Q 4550 1131 3912 565 
Q 3275 0 1925 0 
L 628 0 
L 628 4666 
z
" transform="scale(0.015625)"/>
       <path id="DejaVuSans-61" d="M 2194 1759 
Q 1497 1759 1228 1600 
Q 959 1441 959 1056 
Q 959 750 1161 570 
Q 1363 391 1709 391 
Q 2188 391 2477 730 
Q 2766 1069 2766 1631 
L 2766 1759 
L 2194 1759 
z
M 3341 1997 
L 3341 0 
L 2766 0 
L 2766 531 
Q 2569 213 2275 61 
Q 1981 -91 1556 -91 
Q 1019 -91 701 211 
Q 384 513 384 1019 
Q 384 1609 779 1909 
Q 1175 2209 1959 2209 
L 2766 2209 
L 2766 2266 
Q 2766 2663 2505 2880 
Q 2244 3097 1772 3097 
Q 1472 3097 1187 3025 
Q 903 2953 641 2809 
L 641 3341 
Q 956 3463 1253 3523 
Q 1550 3584 1831 3584 
Q 2591 3584 2966 3190 
Q 3341 2797 3341 1997 
z
" transform="scale(0.015625)"/>
       <path id="DejaVuSans-74" d="M 1172 4494 
L 1172 3500 
L 2356 3500 
L 2356 3053 
L 1172 3053 
L 1172 1153 
Q 1172 725 1289 603 
Q 1406 481 1766 481 
L 2356 481 
L 2356 0 
L 1766 0 
Q 1100 0 847 248 
Q 594 497 594 1153 
L 594 3053 
L 172 3053 
L 172 3500 
L 594 3500 
L 594 4494 
L 1172 4494 
z
" transform="scale(0.015625)"/>
       <path id="DejaVuSans-20" transform="scale(0.015625)"/>
       <path id="DejaVuSans-50" d="M 1259 4147 
L 1259 2394 
L 2053 2394 
Q 2494 2394 2734 2622 
Q 2975 2850 2975 3272 
Q 2975 3691 2734 3919 
Q 2494 4147 2053 4147 
L 1259 4147 
z
M 628 4666 
L 2053 4666 
Q 2838 4666 3239 4311 
Q 3641 3956 3641 3272 
Q 3641 2581 3239 2228 
Q 2838 1875 2053 1875 
L 1259 1875 
L 1259 0 
L 628 0 
L 628 4666 
z
" transform="scale(0.015625)"/>
       <path id="DejaVuSans-6f" d="M 1959 3097 
Q 1497 3097 1228 2736 
Q 959 2375 959 1747 
Q 959 1119 1226 758 
Q 1494 397 1959 397 
Q 2419 397 2687 759 
Q 2956 1122 2956 1747 
Q 2956 2369 2687 2733 
Q 2419 3097 1959 3097 
z
M 1959 3584 
Q 2709 3584 3137 3096 
Q 3566 2609 3566 1747 
Q 3566 888 3137 398 
Q 2709 -91 1959 -91 
Q 1206 -91 779 398 
Q 353 888 353 1747 
Q 353 2609 779 3096 
Q 1206 3584 1959 3584 
z
" transform="scale(0.015625)"/>
       <path id="DejaVuSans-69" d="M 603 3500 
L 1178 3500 
L 1178 0 
L 603 0 
L 603 3500 
z
M 603 4863 
L 1178 4863 
L 1178 4134 
L 603 4134 
L 603 4863 
z
" transform="scale(0.015625)"/>
       <path id="DejaVuSans-6e" d="M 3513 2113 
L 3513 0 
L 2938 0 
L 2938 2094 
Q 2938 2591 2744 2837 
Q 2550 3084 2163 3084 
Q 1697 3084 1428 2787 
Q 1159 2491 1159 1978 
L 1159 0 
L 581 0 
L 581 3500 
L 1159 3500 
L 1159 2956 
Q 1366 3272 1645 3428 
Q 1925 3584 2291 3584 
Q 2894 3584 3203 3211 
Q 3513 2838 3513 2113 
z
" transform="scale(0.015625)"/>
      </defs>
      <use xlink:href="#DejaVuSans-44"/>
      <use xlink:href="#DejaVuSans-61" x="77.001953"/>
      <use xlink:href="#DejaVuSans-74" x="138.28125"/>
      <use xlink:href="#DejaVuSans-61" x="177.490234"/>
      <use xlink:href="#DejaVuSans-20" x="238.769531"/>
      <use xlink:href="#DejaVuSans-50" x="270.556641"/>
      <use xlink:href="#DejaVuSans-6f" x="327.234375"/>
      <use xlink:href="#DejaVuSans-69" x="388.416016"/>
      <use xlink:href="#DejaVuSans-6e" x="416.199219"/>
      <use xlink:href="#DejaVuSans-74" x="479.578125"/>
     </g>
    </g>
   </g>
   <g id="matplotlib.axis_2">
    <g id="ytick_1">
     <g id="line2d_11">
      <path d="M 173.07 415.53 
L 1246.104 415.53 
" clip-path="url(#p825023d212)" style="fill: none; stroke-dasharray: 2.96,1.28; stroke-dashoffset: 0; stroke: #b0b0b0; stroke-opacity: 0.7; stroke-width: 0.8"/>
     </g>
     <g id="line2d_12">
      <defs>
       <path id="m0a889d7c0f" d="M 0 0 
L -3.5 0 
" style="stroke: #000000; stroke-width: 0.8"/>
      </defs>
      <g>
       <use xlink:href="#m0a889d7c0f" x="173.07" y="415.53" style="stroke: #000000; stroke-width: 0.8"/>
      </g>
     </g>
     <g id="text_7">
      <!-- 0.0 -->
      <g transform="translate(150.166875 419.329219)scale(0.1 -0.1)">
       <defs>
        <path id="DejaVuSans-2e" d="M 684 794 
L 1344 794 
L 1344 0 
L 684 0 
L 684 794 
z
" transform="scale(0.015625)"/>
       </defs>
       <use xlink:href="#DejaVuSans-30"/>
       <use xlink:href="#DejaVuSans-2e" x="63.623047"/>
       <use xlink:href="#DejaVuSans-30" x="95.410156"/>
      </g>
     </g>
    </g>
    <g id="ytick_2">
     <g id="line2d_13">
      <path d="M 173.07 347.49 
L 1246.104 347.49 
" clip-path="url(#p825023d212)" style="fill: none; stroke-dasharray: 2.96,1.28; stroke-dashoffset: 0; stroke: #b0b0b0; stroke-opacity: 0.7; stroke-width: 0.8"/>
     </g>
     <g id="line2d_14">
      <g>
       <use xlink:href="#m0a889d7c0f" x="173.07" y="347.49" style="stroke: #000000; stroke-width: 0.8"/>
      </g>
     </g>
     <g id="text_8">
      <!-- 0.2 -->
      <g transform="translate(150.166875 351.289219)scale(0.1 -0.1)">
       <use xlink:href="#DejaVuSans-30"/>
       <use xlink:href="#DejaVuSans-2e" x="63.623047"/>
       <use xlink:href="#DejaVuSans-32" x="95.410156"/>
      </g>
     </g>
    </g>
    <g id="ytick_3">
     <g id="line2d_15">
      <path d="M 173.07 279.45 
L 1246.104 279.45 
" clip-path="url(#p825023d212)" style="fill: none; stroke-dasharray: 2.96,1.28; stroke-dashoffset: 0; stroke: #b0b0b0; stroke-opacity: 0.7; stroke-width: 0.8"/>
     </g>
     <g id="line2d_16">
      <g>
       <use xlink:href="#m0a889d7c0f" x="173.07" y="279.45" style="stroke: #000000; stroke-width: 0.8"/>
      </g>
     </g>
     <g id="text_9">
      <!-- 0.4 -->
      <g transform="translate(150.166875 283.249219)scale(0.1 -0.1)">
       <use xlink:href="#DejaVuSans-30"/>
       <use xlink:href="#DejaVuSans-2e" x="63.623047"/>
       <use xlink:href="#DejaVuSans-34" x="95.410156"/>
      </g>
     </g>
    </g>
    <g id="ytick_4">
     <g id="line2d_17">
      <path d="M 173.07 211.41 
L 1246.104 211.41 
" clip-path="url(#p825023d212)" style="fill: none; stroke-dasharray: 2.96,1.28; stroke-dashoffset: 0; stroke: #b0b0b0; stroke-opacity: 0.7; stroke-width: 0.8"/>
     </g>
     <g id="line2d_18">
      <g>
       <use xlink:href="#m0a889d7c0f" x="173.07" y="211.41" style="stroke: #000000; stroke-width: 0.8"/>
      </g>
     </g>
     <g id="text_10">
      <!-- 0.6 -->
      <g transform="translate(150.166875 215.209219)scale(0.1 -0.1)">
       <use xlink:href="#DejaVuSans-30"/>
       <use xlink:href="#DejaVuSans-2e" x="63.623047"/>
       <use xlink:href="#DejaVuSans-36" x="95.410156"/>
      </g>
     </g>
    </g>
    <g id="ytick_5">
     <g id="line2d_19">
      <path d="M 173.07 143.37 
L 1246.104 143.37 
" clip-path="url(#p825023d212)" style="fill: none; stroke-dasharray: 2.96,1.28; stroke-dashoffset: 0; stroke: #b0b0b0; stroke-opacity: 0.7; stroke-width: 0.8"/>
     </g>
     <g id="line2d_20">
      <g>
       <use xlink:href="#m0a889d7c0f" x="173.07" y="143.37" style="stroke: #000000; stroke-width: 0.8"/>
      </g>
     </g>
     <g id="text_11">
      <!-- 0.8 -->
      <g transform="translate(150.166875 147.169219)scale(0.1 -0.1)">
       <use xlink:href="#DejaVuSans-30"/>
       <use xlink:href="#DejaVuSans-2e" x="63.623047"/>
       <use xlink:href="#DejaVuSans-38" x="95.410156"/>
      </g>
     </g>
    </g>
    <g id="ytick_6">
     <g id="line2d_21">
      <path d="M 173.07 75.33 
L 1246.104 75.33 
" clip-path="url(#p825023d212)" style="fill: none; stroke-dasharray: 2.96,1.28; stroke-dashoffset: 0; stroke: #b0b0b0; stroke-opacity: 0.7; stroke-width: 0.8"/>
     </g>
     <g id="line2d_22">
      <g>
       <use xlink:href="#m0a889d7c0f" x="173.07" y="75.33" style="stroke: #000000; stroke-width: 0.8"/>
      </g>
     </g>
     <g id="text_12">
      <!-- 1.0 -->
      <g transform="translate(150.166875 79.129219)scale(0.1 -0.1)">
       <use xlink:href="#DejaVuSans-31"/>
       <use xlink:href="#DejaVuSans-2e" x="63.623047"/>
       <use xlink:href="#DejaVuSans-30" x="95.410156"/>
      </g>
     </g>
    </g>
    <g id="text_13">
     <!-- Model Accuracy -->
     <g transform="translate(143.67125 292.746562)rotate(-90)scale(0.12 -0.12)">
      <defs>
       <path id="DejaVuSans-4d" d="M 628 4666 
L 1569 4666 
L 2759 1491 
L 3956 4666 
L 4897 4666 
L 4897 0 
L 4281 0 
L 4281 4097 
L 3078 897 
L 2444 897 
L 1241 4097 
L 1241 0 
L 628 0 
L 628 4666 
z
" transform="scale(0.015625)"/>
       <path id="DejaVuSans-64" d="M 2906 2969 
L 2906 4863 
L 3481 4863 
L 3481 0 
L 2906 0 
L 2906 525 
Q 2725 213 2448 61 
Q 2172 -91 1784 -91 
Q 1150 -91 751 415 
Q 353 922 353 1747 
Q 353 2572 751 3078 
Q 1150 3584 1784 3584 
Q 2172 3584 2448 3432 
Q 2725 3281 2906 2969 
z
M 947 1747 
Q 947 1113 1208 752 
Q 1469 391 1925 391 
Q 2381 391 2643 752 
Q 2906 1113 2906 1747 
Q 2906 2381 2643 2742 
Q 2381 3103 1925 3103 
Q 1469 3103 1208 2742 
Q 947 2381 947 1747 
z
" transform="scale(0.015625)"/>
       <path id="DejaVuSans-65" d="M 3597 1894 
L 3597 1613 
L 953 1613 
Q 991 1019 1311 708 
Q 1631 397 2203 397 
Q 2534 397 2845 478 
Q 3156 559 3463 722 
L 3463 178 
Q 3153 47 2828 -22 
Q 2503 -91 2169 -91 
Q 1331 -91 842 396 
Q 353 884 353 1716 
Q 353 2575 817 3079 
Q 1281 3584 2069 3584 
Q 2775 3584 3186 3129 
Q 3597 2675 3597 1894 
z
M 3022 2063 
Q 3016 2534 2758 2815 
Q 2500 3097 2075 3097 
Q 1594 3097 1305 2825 
Q 1016 2553 972 2059 
L 3022 2063 
z
" transform="scale(0.015625)"/>
       <path id="DejaVuSans-6c" d="M 603 4863 
L 1178 4863 
L 1178 0 
L 603 0 
L 603 4863 
z
" transform="scale(0.015625)"/>
       <path id="DejaVuSans-41" d="M 2188 4044 
L 1331 1722 
L 3047 1722 
L 2188 4044 
z
M 1831 4666 
L 2547 4666 
L 4325 0 
L 3669 0 
L 3244 1197 
L 1141 1197 
L 716 0 
L 50 0 
L 1831 4666 
z
" transform="scale(0.015625)"/>
       <path id="DejaVuSans-63" d="M 3122 3366 
L 3122 2828 
Q 2878 2963 2633 3030 
Q 2388 3097 2138 3097 
Q 1578 3097 1268 2742 
Q 959 2388 959 1747 
Q 959 1106 1268 751 
Q 1578 397 2138 397 
Q 2388 397 2633 464 
Q 2878 531 3122 666 
L 3122 134 
Q 2881 22 2623 -34 
Q 2366 -91 2075 -91 
Q 1284 -91 818 406 
Q 353 903 353 1747 
Q 353 2603 823 3093 
Q 1294 3584 2113 3584 
Q 2378 3584 2631 3529 
Q 2884 3475 3122 3366 
z
" transform="scale(0.015625)"/>
       <path id="DejaVuSans-75" d="M 544 1381 
L 544 3500 
L 1119 3500 
L 1119 1403 
Q 1119 906 1312 657 
Q 1506 409 1894 409 
Q 2359 409 2629 706 
Q 2900 1003 2900 1516 
L 2900 3500 
L 3475 3500 
L 3475 0 
L 2900 0 
L 2900 538 
Q 2691 219 2414 64 
Q 2138 -91 1772 -91 
Q 1169 -91 856 284 
Q 544 659 544 1381 
z
M 1991 3584 
L 1991 3584 
z
" transform="scale(0.015625)"/>
       <path id="DejaVuSans-72" d="M 2631 2963 
Q 2534 3019 2420 3045 
Q 2306 3072 2169 3072 
Q 1681 3072 1420 2755 
Q 1159 2438 1159 1844 
L 1159 0 
L 581 0 
L 581 3500 
L 1159 3500 
L 1159 2956 
Q 1341 3275 1631 3429 
Q 1922 3584 2338 3584 
Q 2397 3584 2469 3576 
Q 2541 3569 2628 3553 
L 2631 2963 
z
" transform="scale(0.015625)"/>
       <path id="DejaVuSans-79" d="M 2059 -325 
Q 1816 -950 1584 -1140 
Q 1353 -1331 966 -1331 
L 506 -1331 
L 506 -850 
L 844 -850 
Q 1081 -850 1212 -737 
Q 1344 -625 1503 -206 
L 1606 56 
L 191 3500 
L 800 3500 
L 1894 763 
L 2988 3500 
L 3597 3500 
L 2059 -325 
z
" transform="scale(0.015625)"/>
      </defs>
      <use xlink:href="#DejaVuSans-4d"/>
      <use xlink:href="#DejaVuSans-6f" x="86.279297"/>
      <use xlink:href="#DejaVuSans-64" x="147.460938"/>
      <use xlink:href="#DejaVuSans-65" x="210.9375"/>
      <use xlink:href="#DejaVuSans-6c" x="272.460938"/>
      <use xlink:href="#DejaVuSans-20" x="300.244141"/>
      <use xlink:href="#DejaVuSans-41" x="332.03125"/>
      <use xlink:href="#DejaVuSans-63" x="398.689453"/>
      <use xlink:href="#DejaVuSans-63" x="453.669922"/>
      <use xlink:href="#DejaVuSans-75" x="508.650391"/>
      <use xlink:href="#DejaVuSans-72" x="572.029297"/>
      <use xlink:href="#DejaVuSans-61" x="613.142578"/>
      <use xlink:href="#DejaVuSans-63" x="674.421875"/>
      <use xlink:href="#DejaVuSans-79" x="729.402344"/>
     </g>
    </g>
   </g>
   <g id="line2d_23">
    <path d="M 221.844273 116.08596 
L 225.754034 102.39148 
L 229.663795 89.358057 
L 233.573557 76.975544 
L 235.528437 75.33 
L 434.926266 75.33 
L 436.881146 78.363147 
L 444.700669 93.658041 
L 454.475073 113.289412 
L 466.204357 137.389821 
L 489.662925 186.316782 
L 503.347089 214.601761 
L 513.121493 234.385545 
L 522.895896 253.639838 
L 530.715419 268.5555 
L 538.534941 282.949649 
L 544.399583 293.354187 
L 550.264225 303.38547 
L 556.128867 313.009253 
L 561.993509 322.19129 
L 567.858151 330.897338 
L 573.722793 339.093151 
L 577.632555 344.256652 
L 581.542316 349.168015 
L 585.452077 353.817094 
L 589.361839 358.193742 
L 593.2716 362.287813 
L 597.181361 366.08916 
L 601.091123 369.587637 
L 605.000884 372.773096 
L 608.910645 375.635392 
L 612.820407 378.164377 
L 616.730168 380.349905 
L 620.639929 382.18183 
L 624.549691 383.650005 
L 628.459452 384.744283 
L 632.369214 385.454517 
L 636.278975 385.770562 
L 640.188736 385.68227 
L 644.098498 385.179495 
L 648.008259 384.25209 
L 651.91802 382.889908 
L 655.827782 381.08281 
L 659.737543 378.827064 
L 663.647304 376.137373 
L 667.557066 373.031736 
L 671.466827 369.52815 
L 675.376588 365.644612 
L 679.28635 361.399122 
L 683.196111 356.809676 
L 687.105872 351.894273 
L 691.015634 346.67091 
L 694.925395 341.157586 
L 700.790037 332.383291 
L 706.654679 323.057821 
L 712.519321 313.241917 
L 718.383963 302.996323 
L 726.203486 288.772112 
L 734.023008 274.035976 
L 743.797412 255.115263 
L 777.030383 190.270828 
L 784.849906 175.71677 
L 790.714548 165.166069 
L 796.57919 154.99558 
L 802.443832 145.266048 
L 808.308474 136.038215 
L 814.173116 127.372824 
L 818.082877 121.938361 
L 821.992639 116.798866 
L 825.9024 111.972338 
L 829.812161 107.476775 
L 833.721923 103.330173 
L 837.631684 99.550532 
L 841.541445 96.155849 
L 845.451207 93.164122 
L 849.360968 90.593349 
L 853.270729 88.461528 
L 857.180491 86.786656 
L 859.135371 86.1262 
L 861.090252 85.586731 
L 863.045133 85.170498 
L 865.000013 84.879752 
L 866.954894 84.716741 
L 868.909775 84.683715 
L 870.864655 84.782925 
L 872.819536 85.016591 
L 874.774417 85.385173 
L 876.729297 85.886408 
L 878.684178 86.517795 
L 880.639059 87.276836 
L 882.593939 88.16103 
L 886.503701 90.294881 
L 890.413462 92.899353 
L 894.323223 95.95445 
L 898.232985 99.440176 
L 902.142746 103.336535 
L 906.052507 107.623531 
L 909.962269 112.281168 
L 913.87203 117.28945 
L 917.781791 122.628381 
L 921.691553 128.277965 
L 925.601314 134.218207 
L 931.465956 143.629811 
L 937.330598 153.582917 
L 943.19524 164.010039 
L 949.059882 174.843689 
L 956.879405 189.804293 
L 966.653808 209.108955 
L 984.247734 244.603478 
L 995.977018 268.049598 
L 1003.796541 283.267343 
L 1011.616064 297.96806 
L 1017.480706 308.558066 
L 1023.345348 318.699776 
L 1029.20999 328.325702 
L 1035.074632 337.368359 
L 1038.984393 343.039432 
L 1042.894154 348.401284 
L 1046.803916 353.43392 
L 1050.713677 358.117343 
L 1054.623438 362.431557 
L 1058.5332 366.356567 
L 1062.442961 369.872377 
L 1066.352722 372.95899 
L 1070.262484 375.596411 
L 1074.172245 377.764644 
L 1076.127126 378.666566 
L 1078.082006 379.443693 
L 1080.036887 380.093524 
L 1081.991768 380.613561 
L 1083.946648 381.001304 
L 1085.901529 381.254254 
L 1087.85641 381.36991 
L 1089.81129 381.345848 
L 1091.766171 381.18188 
L 1093.721052 380.880406 
L 1095.675932 380.443971 
L 1097.630813 379.875118 
L 1099.585694 379.176392 
L 1101.540574 378.350338 
L 1105.450336 376.326423 
L 1109.360097 373.823726 
L 1113.269858 370.862603 
L 1117.17962 367.463408 
L 1121.089381 363.646497 
L 1124.999142 359.432225 
L 1128.908904 354.840946 
L 1132.818665 349.893015 
L 1136.728426 344.608788 
L 1140.638188 339.008619 
L 1144.547949 333.112863 
L 1150.412591 323.759531 
L 1156.277233 313.855625 
L 1162.141875 303.469843 
L 1168.006517 292.670883 
L 1175.82604 277.748286 
L 1185.600443 258.481915 
L 1197.329727 234.882842 
L 1197.329727 234.882842 
" clip-path="url(#p825023d212)" style="fill: none; stroke: #1f77b4; stroke-width: 2; stroke-linecap: square"/>
   </g>
   <g id="line2d_24">
    <path d="M 221.844273 415.53 
L 270.716289 415.53 
L 272.67117 404.580615 
L 278.535812 367.271825 
L 284.400454 331.80868 
L 290.265096 298.156294 
L 296.129738 266.279781 
L 301.99438 236.144255 
L 305.904142 217.003891 
L 309.813903 198.611459 
L 313.723664 180.95662 
L 317.633426 164.029039 
L 321.543187 147.818379 
L 325.452948 132.314304 
L 329.36271 117.506476 
L 333.272471 103.38456 
L 337.182232 89.938218 
L 341.091994 77.157115 
L 343.046874 75.33 
L 544.399583 75.33 
L 546.354464 76.678439 
L 554.173987 92.259799 
L 563.94839 112.24183 
L 575.677674 136.748226 
L 616.730168 223.149049 
L 626.504572 242.968924 
L 634.324094 258.384075 
L 642.143617 273.317865 
L 649.96314 287.687603 
L 655.827782 298.045001 
L 661.692424 308.00372 
L 667.557066 317.528872 
L 673.421708 326.585572 
L 679.28635 335.138935 
L 685.150992 343.154073 
L 689.060753 348.181258 
L 692.970514 352.943391 
L 696.880276 357.430136 
L 700.790037 361.631155 
L 704.699798 365.536113 
L 708.60956 369.134673 
L 712.519321 372.416498 
L 716.429082 375.371251 
L 720.338844 377.988597 
L 724.248605 380.258199 
L 728.158366 382.169719 
L 732.068128 383.712822 
L 735.977889 384.877171 
L 739.88765 385.652429 
L 743.797412 386.02826 
L 747.707173 385.994327 
L 751.616934 385.540294 
L 755.526696 384.655824 
L 759.436457 383.330581 
L 763.346218 381.554228 
L 767.25598 379.31979 
L 771.165741 376.639101 
L 775.075502 373.530535 
L 778.985264 370.012473 
L 782.895025 366.103294 
L 786.804786 361.821379 
L 790.714548 357.185108 
L 794.624309 352.212861 
L 798.534071 346.923019 
L 802.443832 341.333961 
L 806.353593 335.464069 
L 812.218235 326.172871 
L 818.082877 316.353182 
L 823.947519 306.067037 
L 829.812161 295.376467 
L 837.631684 280.600489 
L 845.451207 265.362858 
L 857.180491 241.962467 
L 878.684178 198.870186 
L 888.458581 179.874775 
L 896.278104 165.220544 
L 902.142746 154.642592 
L 908.007388 144.487325 
L 913.87203 134.816777 
L 919.736672 125.692982 
L 923.646433 119.944836 
L 927.556195 114.485643 
L 931.465956 109.333781 
L 935.375717 104.507631 
L 939.285479 100.025574 
L 943.19524 95.905989 
L 947.105001 92.167257 
L 951.014763 88.827758 
L 954.924524 85.905871 
L 958.834285 83.419979 
L 962.744047 81.388459 
L 966.653808 79.829694 
L 968.608689 79.233338 
L 970.56357 78.762062 
L 972.51845 78.418166 
L 974.473331 78.203945 
L 976.428212 78.121698 
L 978.383092 78.173722 
L 980.337973 78.362315 
L 982.292854 78.689205 
L 984.247734 79.152937 
L 986.202615 79.750948 
L 988.157496 80.480674 
L 990.112376 81.339552 
L 994.022138 83.43451 
L 997.931899 86.015312 
L 1001.84166 89.06145 
L 1005.751422 92.552414 
L 1009.661183 96.467697 
L 1013.570944 100.786789 
L 1017.480706 105.489181 
L 1021.390467 110.554366 
L 1025.300228 115.961833 
L 1029.20999 121.691074 
L 1033.119751 127.72158 
L 1038.984393 137.287349 
L 1044.849035 147.415603 
L 1050.713677 158.037124 
L 1056.578319 169.082696 
L 1064.397842 184.350124 
L 1074.172245 204.071542 
L 1089.81129 236.342886 
L 1103.495455 264.407023 
L 1111.314978 280.013861 
L 1119.1345 295.103022 
L 1124.999142 305.981467 
L 1130.863784 316.407211 
L 1136.728426 326.311038 
L 1142.593069 335.623729 
L 1146.50283 341.469601 
L 1150.412591 347.001473 
L 1154.322353 352.198838 
L 1158.232114 357.041187 
L 1162.141875 361.50801 
L 1166.051637 365.5788 
L 1169.961398 369.233047 
L 1173.871159 372.450242 
L 1177.780921 375.209877 
L 1181.690682 377.491443 
L 1183.645563 378.446541 
L 1185.600443 379.274431 
L 1187.555324 379.97255 
L 1189.510205 380.538333 
L 1191.465085 380.969217 
L 1193.419966 381.262639 
L 1195.374847 381.416034 
L 1197.329727 381.42684 
L 1197.329727 381.42684 
" clip-path="url(#p825023d212)" style="fill: none; stroke: #d62728; stroke-width: 2; stroke-linecap: square"/>
   </g>
   <g id="line2d_25">
    <path d="M 173.07 245.43 
L 1246.104 245.43 
" clip-path="url(#p825023d212)" style="fill: none; stroke-dasharray: 3.7,1.6; stroke-dashoffset: 0; stroke: #808080"/>
   </g>
   <g id="patch_3">
    <path d="M 173.07 432.54 
L 173.07 58.32 
" style="fill: none; stroke: #000000; stroke-width: 0.8; stroke-linejoin: miter; stroke-linecap: square"/>
   </g>
   <g id="patch_4">
    <path d="M 1246.104 432.54 
L 1246.104 58.32 
" style="fill: none; stroke: #000000; stroke-width: 0.8; stroke-linejoin: miter; stroke-linecap: square"/>
   </g>
   <g id="patch_5">
    <path d="M 173.07 432.54 
L 1246.104 432.54 
" style="fill: none; stroke: #000000; stroke-width: 0.8; stroke-linejoin: miter; stroke-linecap: square"/>
   </g>
   <g id="patch_6">
    <path d="M 173.07 58.32 
L 1246.104 58.32 
" style="fill: none; stroke: #000000; stroke-width: 0.8; stroke-linejoin: miter; stroke-linecap: square"/>
   </g>
   <g id="text_14">
    <!-- Model Accuracy on Forget and Retain Sets -->
    <g transform="translate(561.652938 52.32)scale(0.14 -0.14)">
     <defs>
      <path id="DejaVuSans-46" d="M 628 4666 
L 3309 4666 
L 3309 4134 
L 1259 4134 
L 1259 2759 
L 3109 2759 
L 3109 2228 
L 1259 2228 
L 1259 0 
L 628 0 
L 628 4666 
z
" transform="scale(0.015625)"/>
      <path id="DejaVuSans-67" d="M 2906 1791 
Q 2906 2416 2648 2759 
Q 2391 3103 1925 3103 
Q 1463 3103 1205 2759 
Q 947 2416 947 1791 
Q 947 1169 1205 825 
Q 1463 481 1925 481 
Q 2391 481 2648 825 
Q 2906 1169 2906 1791 
z
M 3481 434 
Q 3481 -459 3084 -895 
Q 2688 -1331 1869 -1331 
Q 1566 -1331 1297 -1286 
Q 1028 -1241 775 -1147 
L 775 -588 
Q 1028 -725 1275 -790 
Q 1522 -856 1778 -856 
Q 2344 -856 2625 -561 
Q 2906 -266 2906 331 
L 2906 616 
Q 2728 306 2450 153 
Q 2172 0 1784 0 
Q 1141 0 747 490 
Q 353 981 353 1791 
Q 353 2603 747 3093 
Q 1141 3584 1784 3584 
Q 2172 3584 2450 3431 
Q 2728 3278 2906 2969 
L 2906 3500 
L 3481 3500 
L 3481 434 
z
" transform="scale(0.015625)"/>
      <path id="DejaVuSans-52" d="M 2841 2188 
Q 3044 2119 3236 1894 
Q 3428 1669 3622 1275 
L 4263 0 
L 3584 0 
L 2988 1197 
Q 2756 1666 2539 1819 
Q 2322 1972 1947 1972 
L 1259 1972 
L 1259 0 
L 628 0 
L 628 4666 
L 2053 4666 
Q 2853 4666 3247 4331 
Q 3641 3997 3641 3322 
Q 3641 2881 3436 2590 
Q 3231 2300 2841 2188 
z
M 1259 4147 
L 1259 2491 
L 2053 2491 
Q 2509 2491 2742 2702 
Q 2975 2913 2975 3322 
Q 2975 3731 2742 3939 
Q 2509 4147 2053 4147 
L 1259 4147 
z
" transform="scale(0.015625)"/>
      <path id="DejaVuSans-53" d="M 3425 4513 
L 3425 3897 
Q 3066 4069 2747 4153 
Q 2428 4238 2131 4238 
Q 1616 4238 1336 4038 
Q 1056 3838 1056 3469 
Q 1056 3159 1242 3001 
Q 1428 2844 1947 2747 
L 2328 2669 
Q 3034 2534 3370 2195 
Q 3706 1856 3706 1288 
Q 3706 609 3251 259 
Q 2797 -91 1919 -91 
Q 1588 -91 1214 -16 
Q 841 59 441 206 
L 441 856 
Q 825 641 1194 531 
Q 1563 422 1919 422 
Q 2459 422 2753 634 
Q 3047 847 3047 1241 
Q 3047 1584 2836 1778 
Q 2625 1972 2144 2069 
L 1759 2144 
Q 1053 2284 737 2584 
Q 422 2884 422 3419 
Q 422 4038 858 4394 
Q 1294 4750 2059 4750 
Q 2388 4750 2728 4690 
Q 3069 4631 3425 4513 
z
" transform="scale(0.015625)"/>
      <path id="DejaVuSans-73" d="M 2834 3397 
L 2834 2853 
Q 2591 2978 2328 3040 
Q 2066 3103 1784 3103 
Q 1356 3103 1142 2972 
Q 928 2841 928 2578 
Q 928 2378 1081 2264 
Q 1234 2150 1697 2047 
L 1894 2003 
Q 2506 1872 2764 1633 
Q 3022 1394 3022 966 
Q 3022 478 2636 193 
Q 2250 -91 1575 -91 
Q 1294 -91 989 -36 
Q 684 19 347 128 
L 347 722 
Q 666 556 975 473 
Q 1284 391 1588 391 
Q 1994 391 2212 530 
Q 2431 669 2431 922 
Q 2431 1156 2273 1281 
Q 2116 1406 1581 1522 
L 1381 1569 
Q 847 1681 609 1914 
Q 372 2147 372 2553 
Q 372 3047 722 3315 
Q 1072 3584 1716 3584 
Q 2034 3584 2315 3537 
Q 2597 3491 2834 3397 
z
" transform="scale(0.015625)"/>
     </defs>
     <use xlink:href="#DejaVuSans-4d"/>
     <use xlink:href="#DejaVuSans-6f" x="86.279297"/>
     <use xlink:href="#DejaVuSans-64" x="147.460938"/>
     <use xlink:href="#DejaVuSans-65" x="210.9375"/>
     <use xlink:href="#DejaVuSans-6c" x="272.460938"/>
     <use xlink:href="#DejaVuSans-20" x="300.244141"/>
     <use xlink:href="#DejaVuSans-41" x="332.03125"/>
     <use xlink:href="#DejaVuSans-63" x="398.689453"/>
     <use xlink:href="#DejaVuSans-63" x="453.669922"/>
     <use xlink:href="#DejaVuSans-75" x="508.650391"/>
     <use xlink:href="#DejaVuSans-72" x="572.029297"/>
     <use xlink:href="#DejaVuSans-61" x="613.142578"/>
     <use xlink:href="#DejaVuSans-63" x="674.421875"/>
     <use xlink:href="#DejaVuSans-79" x="729.402344"/>
     <use xlink:href="#DejaVuSans-20" x="788.582031"/>
     <use xlink:href="#DejaVuSans-6f" x="820.369141"/>
     <use xlink:href="#DejaVuSans-6e" x="881.550781"/>
     <use xlink:href="#DejaVuSans-20" x="944.929688"/>
     <use xlink:href="#DejaVuSans-46" x="976.716797"/>
     <use xlink:href="#DejaVuSans-6f" x="1030.611328"/>
     <use xlink:href="#DejaVuSans-72" x="1091.792969"/>
     <use xlink:href="#DejaVuSans-67" x="1131.15625"/>
     <use xlink:href="#DejaVuSans-65" x="1194.632812"/>
     <use xlink:href="#DejaVuSans-74" x="1256.15625"/>
     <use xlink:href="#DejaVuSans-20" x="1295.365234"/>
     <use xlink:href="#DejaVuSans-61" x="1327.152344"/>
     <use xlink:href="#DejaVuSans-6e" x="1388.431641"/>
     <use xlink:href="#DejaVuSans-64" x="1451.810547"/>
     <use xlink:href="#DejaVuSans-20" x="1515.287109"/>
     <use xlink:href="#DejaVuSans-52" x="1547.074219"/>
     <use xlink:href="#DejaVuSans-65" x="1612.056641"/>
     <use xlink:href="#DejaVuSans-74" x="1673.580078"/>
     <use xlink:href="#DejaVuSans-61" x="1712.789062"/>
     <use xlink:href="#DejaVuSans-69" x="1774.068359"/>
     <use xlink:href="#DejaVuSans-6e" x="1801.851562"/>
     <use xlink:href="#DejaVuSans-20" x="1865.230469"/>
     <use xlink:href="#DejaVuSans-53" x="1897.017578"/>
     <use xlink:href="#DejaVuSans-65" x="1960.494141"/>
     <use xlink:href="#DejaVuSans-74" x="2022.017578"/>
     <use xlink:href="#DejaVuSans-73" x="2061.226562"/>
    </g>
   </g>
   <g id="legend_1">
    <g id="patch_7">
     <path d="M 1137.54525 103.1475 
L 1237.704 103.1475 
Q 1240.104 103.1475 1240.104 100.7475 
L 1240.104 66.72 
Q 1240.104 64.32 1237.704 64.32 
L 1137.54525 64.32 
Q 1135.14525 64.32 1135.14525 66.72 
L 1135.14525 100.7475 
Q 1135.14525 103.1475 1137.54525 103.1475 
z
" style="fill: #ffffff; opacity: 0.8; stroke: #cccccc; stroke-linejoin: miter"/>
    </g>
    <g id="line2d_26">
     <path d="M 1139.94525 74.038125 
L 1151.94525 74.038125 
L 1163.94525 74.038125 
" style="fill: none; stroke: #1f77b4; stroke-width: 2; stroke-linecap: square"/>
    </g>
    <g id="text_15">
     <!-- Forget Set -->
     <g transform="translate(1173.54525 78.238125)scale(0.12 -0.12)">
      <use xlink:href="#DejaVuSans-46"/>
      <use xlink:href="#DejaVuSans-6f" x="53.894531"/>
      <use xlink:href="#DejaVuSans-72" x="115.076172"/>
      <use xlink:href="#DejaVuSans-67" x="154.439453"/>
      <use xlink:href="#DejaVuSans-65" x="217.916016"/>
      <use xlink:href="#DejaVuSans-74" x="279.439453"/>
      <use xlink:href="#DejaVuSans-20" x="318.648438"/>
      <use xlink:href="#DejaVuSans-53" x="350.435547"/>
      <use xlink:href="#DejaVuSans-65" x="413.912109"/>
      <use xlink:href="#DejaVuSans-74" x="475.435547"/>
     </g>
    </g>
    <g id="line2d_27">
     <path d="M 1139.94525 91.651875 
L 1151.94525 91.651875 
L 1163.94525 91.651875 
" style="fill: none; stroke: #d62728; stroke-width: 2; stroke-linecap: square"/>
    </g>
    <g id="text_16">
     <!-- Retain Set -->
     <g transform="translate(1173.54525 95.851875)scale(0.12 -0.12)">
      <use xlink:href="#DejaVuSans-52"/>
      <use xlink:href="#DejaVuSans-65" x="64.982422"/>
      <use xlink:href="#DejaVuSans-74" x="126.505859"/>
      <use xlink:href="#DejaVuSans-61" x="165.714844"/>
      <use xlink:href="#DejaVuSans-69" x="226.994141"/>
      <use xlink:href="#DejaVuSans-6e" x="254.777344"/>
      <use xlink:href="#DejaVuSans-20" x="318.15625"/>
      <use xlink:href="#DejaVuSans-53" x="349.943359"/>
      <use xlink:href="#DejaVuSans-65" x="413.419922"/>
      <use xlink:href="#DejaVuSans-74" x="474.943359"/>
     </g>
    </g>
   </g>
  </g>
 </g>
 <defs>
  <clipPath id="p825023d212">
   <rect x="173.07" y="58.32" width="1073.034" height="374.22"/>
  </clipPath>
 </defs>
</svg>
